<svg version="1.1" id="Layer_1" xmlns="http://www.w3.org/2000/svg" xmlns:xlink="http://www.w3.org/1999/xlink" x="0px" y="0px"
	 width="100%" viewBox="0 0 1024 672" enable-background="new 0 0 1024 672" xml:space="preserve">
<path fill="#16a34a" opacity="1.000000" stroke="none" 
	d="
M423.485931,241.556549 
	C409.963867,238.281921 396.861389,235.562042 383.143250,237.210693 
	C358.349091,240.190475 343.832306,262.795197 352.541779,285.391235 
	C357.598663,298.510925 372.101379,306.402618 384.687897,302.883575 
	C392.837097,300.605164 397.022125,295.560059 397.696320,287.193054 
	C397.776581,286.197052 397.760864,285.188782 397.906494,284.203461 
	C398.430023,280.661255 400.232422,278.062195 404.047821,278.290314 
	C407.900177,278.520660 409.196899,281.322968 409.315857,284.931549 
	C409.788879,299.278473 396.761932,311.526642 380.355072,312.087891 
	C355.595795,312.934845 336.930664,290.921356 341.168060,265.871155 
	C344.868958,243.992813 360.464478,230.020340 383.073425,227.635468 
	C398.823700,225.974075 413.908447,228.990372 428.908142,232.983902 
	C447.110107,237.830048 464.457703,245.292664 482.471405,250.731262 
	C501.041016,256.337708 519.784973,260.892120 539.411316,258.714447 
	C552.114441,257.304962 563.286011,252.908615 570.677734,241.555511 
	C579.839661,227.483383 573.719666,207.245865 558.302185,201.343475 
	C552.997742,199.312744 547.438110,199.250275 542.112488,200.994125 
	C535.545288,203.144547 531.513733,207.700714 531.053650,214.900681 
	C531.021790,215.399490 531.000977,215.899094 530.963867,216.397491 
	C530.468506,223.060913 528.659180,225.586304 524.638550,225.230331 
	C520.562012,224.869431 518.705750,221.075424 519.620728,214.973740 
	C521.571594,201.963913 533.213745,192.331345 547.645142,191.786591 
	C562.820068,191.213745 575.114258,198.305130 581.015625,211.035019 
	C587.083923,224.124985 584.319397,241.387054 574.605469,252.213638 
	C565.098816,262.809174 552.726624,267.007263 539.091614,268.309814 
	C517.394714,270.382477 496.767944,264.963715 476.323669,258.787048 
	C466.605438,255.850967 457.079651,252.277893 447.466614,248.993576 
	C445.760803,248.410767 444.101959,247.569534 442.155090,247.969879 
	C440.640930,249.912018 441.294281,252.161285 441.292542,254.237961 
	C441.246155,308.727539 441.267975,363.217194 441.203979,417.706726 
	C441.199585,421.455872 442.625031,426.942200 436.649261,426.970123 
	C430.381836,426.999359 431.781616,421.340698 431.777130,417.433533 
	C431.713623,362.277435 431.746674,307.121216 431.721344,251.965027 
	C431.717194,242.939941 432.701019,244.231491 423.485931,241.556549 
z"/>
<path fill="#16a34a" opacity="1.000000" stroke="none" 
	d="
M320.003204,377.405945 
	C301.551758,388.156158 307.500641,404.762756 318.191162,413.793304 
	C327.544159,421.694061 338.741058,425.809723 350.499756,428.816376 
	C376.207520,435.389801 402.788605,436.937683 428.632172,442.687775 
	C436.185913,444.368500 443.410187,446.787506 449.699615,451.424103 
	C456.978455,456.790100 458.477661,464.345276 453.920715,472.048370 
	C445.355682,486.526733 447.553619,492.195496 463.462250,497.309601 
	C468.421600,498.903870 473.541504,499.496582 478.596039,500.510986 
	C480.152893,500.823456 481.946503,500.575165 482.979797,501.974091 
	C483.027557,503.620880 481.985748,503.939026 481.011780,503.965149 
	C470.799377,504.238983 460.656006,504.049927 451.367249,498.893341 
	C441.680969,493.516144 439.252441,485.069519 444.598724,475.319305 
	C451.898895,462.005737 450.156952,457.066315 435.615204,452.022156 
	C423.432800,447.796448 410.612885,446.682922 397.882202,445.106384 
	C376.104675,442.409485 354.102173,440.785187 333.223785,433.174469 
	C322.777100,429.366302 313.101837,424.394348 305.814178,415.596466 
	C294.148041,401.512695 297.219818,383.161499 312.750732,373.494843 
	C324.639282,366.095245 337.967499,363.276428 351.405823,360.724854 
	C366.654999,357.829437 382.129181,356.873108 397.575714,355.959808 
	C405.907318,355.467224 414.140869,354.377106 422.404205,353.418182 
	C424.457733,353.179901 427.107239,351.774567 427.557373,355.140259 
	C427.989349,358.370209 425.187225,358.193726 423.060211,358.271515 
	C403.990479,358.969177 385.337158,362.273438 367.014709,367.442535 
	C358.037842,369.975037 349.141205,372.875336 341.183777,377.944275 
	C330.657867,384.649414 330.126221,394.429626 339.965302,402.243835 
	C348.823700,409.279175 359.482941,412.189789 370.246674,414.574738 
	C379.023193,416.519379 387.927795,417.743073 396.940338,418.140472 
	C399.440674,418.250732 402.167358,418.095703 404.499695,419.750824 
	C403.352875,422.154297 401.315704,421.988220 399.634247,422.151611 
	C376.927094,424.358337 354.774200,422.215942 333.516022,413.426270 
	C328.343750,411.287689 323.919556,408.063965 320.430908,403.671478 
	C314.253967,395.894165 314.465363,387.089172 320.900146,379.512024 
	C321.596619,378.691895 322.192230,377.786102 322.855804,376.891479 
	C321.609375,376.205841 320.990204,376.925476 320.003204,377.405945 
z"/>
<path fill="#16a34a" opacity="1.000000" stroke="none" 
	d="
M598.633789,305.213745 
	C591.345032,302.636444 584.508667,302.951050 577.813721,305.850403 
	C570.030273,309.221191 565.704285,316.792450 566.634827,325.195831 
	C566.781433,326.519104 567.057800,327.839935 567.069824,329.163757 
	C567.097168,332.160248 565.901855,334.524567 562.707031,334.890625 
	C559.268066,335.284698 557.316284,333.089050 556.886292,329.984161 
	C554.060242,309.576416 567.044189,295.803619 584.606628,294.737488 
	C590.574646,294.375214 596.599976,294.169220 602.404480,296.266266 
	C614.259216,300.549072 622.167236,311.492554 622.281067,324.737946 
	C622.475769,347.389679 622.353455,370.044128 622.368286,392.697418 
	C622.371826,398.043488 622.671509,403.370911 624.464539,408.459747 
	C627.319214,416.561249 632.694153,420.037323 641.738098,419.818878 
	C650.135681,419.616028 655.303833,415.604340 657.731689,407.406525 
	C657.967957,406.608734 658.242004,405.821136 658.451111,405.016479 
	C659.368713,401.486633 661.031921,398.308594 665.245300,399.565704 
	C669.705444,400.896332 668.537598,404.807709 667.700012,407.989380 
	C664.787170,419.054810 655.795166,426.518890 642.740784,427.660736 
	C631.425781,428.650452 621.204102,424.871887 616.242859,414.664398 
	C615.819885,413.794189 615.177124,413.030853 614.564880,412.110260 
	C613.985535,412.528595 613.468689,412.722107 613.239502,413.093201 
	C605.024536,426.393677 592.821594,430.104553 578.293945,426.923676 
	C564.317017,423.863281 556.482910,414.108185 554.230225,400.589355 
	C550.391174,377.551208 557.215210,361.602020 580.635986,354.458221 
	C582.864502,353.778503 585.100708,353.107300 587.283020,352.296692 
	C591.649414,350.674835 596.171143,349.327667 600.286316,347.203735 
	C608.293457,343.071075 613.121460,336.532166 612.605347,327.171661 
	C612.073853,317.532562 609.207458,309.082520 598.633789,305.213745 
M610.677002,402.030853 
	C613.296814,394.794739 612.750244,387.260681 612.759827,379.781281 
	C612.772278,370.024963 612.762878,360.268646 612.762878,349.290924 
	C603.874329,357.435028 593.649170,359.944397 583.768188,363.277893 
	C579.363098,364.764038 574.976013,366.439819 571.320679,369.492523 
	C560.000549,378.946472 559.715942,401.742371 570.776428,412.318573 
	C574.764404,416.131836 579.388550,418.394745 584.995117,418.766235 
	C597.397034,419.588013 605.721436,414.092377 610.677002,402.030853 
z"/>
<path fill="#16a34a" opacity="1.000000" stroke="none" 
	d="
M470.607788,359.999634 
	C470.633759,348.835907 470.462769,338.167206 470.732788,327.509674 
	C471.069336,314.224487 476.009705,303.189148 488.818939,297.747803 
	C502.379578,291.987213 516.168823,292.301727 528.073792,301.688904 
	C545.564636,315.480621 542.319641,347.021606 522.747742,358.251099 
	C515.022949,362.683258 506.451050,364.971008 498.141876,367.916809 
	C490.670807,370.565399 483.830109,374.181366 481.477417,382.388733 
	C478.469086,392.883484 479.643860,403.095154 486.986572,411.511383 
	C493.616516,419.110596 505.581268,420.947021 515.690918,416.944153 
	C525.006836,413.255493 530.370605,405.079926 530.615906,394.159271 
	C530.642090,392.994720 530.577209,391.826782 530.521606,390.661987 
	C530.384766,387.795258 530.692139,385.139801 534.284424,384.743286 
	C537.952087,384.338470 539.471741,386.751831 539.817200,389.821106 
	C540.881287,399.276062 539.011047,408.118195 533.036926,415.676422 
	C523.990540,427.121490 507.565247,431.100220 492.094727,425.887146 
	C479.716858,421.716156 471.054596,409.437927 470.727142,394.988342 
	C470.466766,383.497070 470.630890,371.996216 470.607788,359.999634 
M480.208466,365.132019 
	C480.367523,366.854675 481.299133,367.184143 482.506165,366.139435 
	C490.066315,359.596100 499.702576,357.717194 508.683136,354.353333 
	C512.729492,352.837646 516.734924,351.215820 520.279846,348.649780 
	C533.639771,338.979004 532.449036,314.641022 518.220581,306.802429 
	C500.412323,296.991699 480.645386,308.212891 480.256561,328.496185 
	C480.027222,340.459961 480.194031,352.431305 480.208466,365.132019 
z"/>
<path fill="#16a34a" opacity="1.000000" stroke="none" 
	d="
M486.338043,109.953476 
	C490.442993,122.082146 487.486908,132.697540 480.795929,142.472626 
	C475.095551,150.800522 467.152710,156.998962 459.589722,163.522018 
	C448.928284,172.717392 442.509460,183.614090 446.537140,198.231461 
	C448.787628,206.399017 454.569000,212.268906 460.590607,217.861832 
	C461.852844,219.034225 463.897369,219.637939 463.754303,221.957626 
	C461.910004,223.716400 460.298065,222.236649 458.735901,221.600342 
	C432.897614,211.075867 423.902802,183.733109 438.391144,159.727509 
	C442.269867,153.300858 446.800110,147.330246 451.668640,141.625656 
	C454.816864,137.936829 457.581512,133.996231 459.925110,129.759827 
	C468.219208,114.766907 465.906738,101.760056 453.050171,90.431015 
	C451.511353,89.075020 449.259674,88.258377 448.829865,85.831612 
	C459.937042,81.708679 479.864349,94.409515 486.338043,109.953476 
z"/>
<path fill="#16a34a" opacity="1.000000" stroke="none" 
	d="
M344.212219,163.282318 
	C343.736237,165.176041 342.488617,166.918121 344.329895,168.175903 
	C346.240234,169.480881 347.315796,167.540024 348.548401,166.575287 
	C353.147736,162.975357 353.410767,163.042160 355.449707,168.633209 
	C355.506317,168.788406 355.499756,169.042404 355.601990,169.094421 
	C364.070496,173.404465 359.455170,180.522766 359.399872,186.664185 
	C359.397186,186.961472 359.632507,187.260895 359.760498,187.562134 
	C360.060242,187.685699 360.427887,187.986511 360.642426,187.901413 
	C373.127655,182.948151 384.060638,186.822495 394.583130,193.648758 
	C401.009949,197.818024 407.617065,201.705109 414.520538,205.067657 
	C415.921295,205.749924 417.764923,206.240463 417.643585,208.691605 
	C415.526520,210.169479 413.586914,208.848083 411.731445,208.024368 
	C404.708557,204.906662 398.157562,200.947311 391.731964,196.746628 
	C383.018219,191.050064 373.752380,188.026428 363.333862,191.611359 
	C360.962585,192.427292 358.400909,193.090439 358.343750,196.352158 
	C358.282776,199.831665 361.333313,199.317459 363.297089,200.172562 
	C366.189117,201.431854 369.299011,201.914932 372.815918,202.451172 
	C371.016693,205.720245 368.195801,205.097610 365.775269,205.101227 
	C363.169403,205.105118 360.814453,203.206055 358.305084,203.604919 
	C357.948822,203.989441 357.775391,204.092987 357.730957,204.236481 
	C354.189606,215.675125 352.288940,217.056610 339.724854,217.308060 
	C328.382996,217.535065 324.162262,216.256714 318.244171,210.589600 
	C306.525452,216.675293 295.828308,225.550034 281.772217,226.845459 
	C287.735901,221.435623 295.847992,219.626129 301.833649,214.774887 
	C302.503082,212.901764 300.947113,212.165665 300.487274,210.987015 
	C299.830719,209.304153 300.075867,207.634354 301.880981,207.441498 
	C304.437561,207.168350 305.876007,206.138809 307.306824,203.984177 
	C308.550629,202.111160 310.248871,203.530823 311.287079,205.001556 
	C312.213348,206.313705 312.705963,208.263229 314.989532,207.348602 
	C317.332428,206.410217 318.205994,204.595779 317.905701,202.155457 
	C317.092743,195.548187 316.481628,188.907578 315.406982,182.342972 
	C313.773407,172.364182 313.636047,172.386673 323.811829,168.617767 
	C320.651398,166.564835 317.928680,164.460815 316.821228,161.045685 
	C315.646912,157.424469 316.987885,155.842834 320.679138,156.694443 
	C325.621887,157.834824 328.702209,161.195709 330.729492,166.155655 
	C334.081207,163.741516 336.695221,160.883652 340.355560,159.703384 
	C343.372833,158.730484 344.970184,159.436218 344.212219,163.282318 
M353.442566,200.922974 
	C353.944061,195.190353 355.491638,189.521469 354.706329,183.115326 
	C345.535492,184.955612 336.431915,183.832108 327.435791,184.997040 
	C331.503510,188.456543 337.097809,185.007614 341.238892,188.142288 
	C339.864197,191.106445 336.913727,189.264832 335.265228,191.089645 
	C337.512726,192.974503 341.058594,190.511978 342.902008,193.352142 
	C341.711975,196.203659 338.493073,194.546005 336.724884,196.456360 
	C337.281860,197.419250 339.314728,197.471283 338.704041,199.824158 
	C334.929626,199.899292 335.790863,206.240738 330.470184,205.528275 
	C331.437347,208.016678 330.466461,209.968872 329.970917,212.023117 
	C335.189453,214.088470 340.011230,212.099380 344.828033,212.228378 
	C345.600494,209.396912 341.358215,208.073425 343.770172,204.399475 
	C345.542175,208.443466 349.711914,205.524689 352.323029,208.336319 
	C352.661285,205.990097 352.966736,203.871582 353.442566,200.922974 
M351.666626,179.663620 
	C352.996155,179.263596 354.588196,179.433914 355.801544,177.511322 
	C344.330994,180.136459 333.197174,179.281631 322.051636,178.511917 
	C331.578644,181.084824 341.194702,181.327408 351.666626,179.663620 
M342.591736,173.408157 
	C339.232758,168.172134 337.243378,173.630188 334.599823,174.043854 
	C337.347504,174.656540 340.077911,175.561630 342.591736,173.408157 
z"/>
<path fill="#16a34a" opacity="1.000000" stroke="none" 
	d="
M696.136414,253.972290 
	C703.438660,265.001923 702.601379,273.405273 693.506409,282.439789 
	C685.998108,289.898163 676.518066,294.095825 666.950134,297.962769 
	C655.038757,302.776855 642.495300,305.619690 630.055664,308.685852 
	C626.765015,309.496979 621.615295,311.551331 620.591614,306.733185 
	C619.566101,301.905792 625.387695,302.717163 628.213257,301.972778 
	C644.050354,297.800262 659.657288,293.191040 673.380615,283.835663 
	C675.291016,282.533325 677.175293,281.072815 678.712036,279.362427 
	C686.613098,270.568542 685.884399,262.219757 676.405273,255.095047 
	C668.127258,248.873093 658.361938,245.868423 648.504883,243.341614 
	C630.534058,238.734818 612.240051,236.377930 593.682861,236.100555 
	C592.520630,236.083191 591.352112,235.967453 590.201843,235.795090 
	C588.630493,235.559631 587.192566,235.021423 587.261963,233.068024 
	C587.319458,231.448807 588.107178,230.109116 589.684326,229.617981 
	C590.931030,229.229736 592.293396,229.109970 593.610779,229.067398 
	C618.385986,228.266708 642.871399,230.541107 666.756836,237.242035 
	C677.661926,240.301392 688.251648,244.565247 696.136414,253.972290 
z"/>
<path fill="#16a34a" opacity="1.000000" stroke="none" 
	d="
M597.329712,222.845490 
	C620.057861,219.973465 642.310730,220.271301 664.365234,224.802536 
	C679.761108,227.965714 694.857971,232.112946 707.028748,243.001648 
	C719.512817,254.170685 722.681519,269.172546 714.799927,282.018707 
	C710.525574,288.985474 703.981873,293.714447 696.964722,297.714172 
	C676.536804,309.358124 654.122375,314.922882 631.252197,319.060760 
	C630.279053,319.236847 629.257385,319.221222 628.262329,319.185181 
	C625.812744,319.096527 624.716553,317.482025 624.407288,315.331726 
	C624.079224,313.051147 625.960144,312.548126 627.556335,312.197906 
	C635.846436,310.379028 644.229858,308.940277 652.447876,306.847473 
	C666.974304,303.148193 681.563110,299.438416 694.277405,290.972198 
	C701.400024,286.229370 707.276367,280.540802 707.862122,271.185516 
	C708.423706,262.214539 704.479675,255.352814 697.872070,249.894150 
	C685.034790,239.288971 669.677734,234.361740 653.679382,231.331772 
	C637.129944,228.197464 620.416626,226.431381 603.513062,227.039154 
	C599.629944,227.178772 595.717041,226.910889 591.920715,225.136703 
	C593.231995,222.894409 595.243530,223.293259 597.329712,222.845490 
z"/>
<path fill="#16a34a" opacity="1.000000" stroke="none" 
	d="
M693.639038,470.405212 
	C696.487366,472.605286 695.611572,476.945923 699.137939,478.218231 
	C702.733276,479.515381 704.862366,476.183502 707.821167,475.363800 
	C717.306152,472.735962 725.856689,480.788361 723.856812,490.863892 
	C722.277222,498.821991 717.181335,503.833191 710.125977,507.542969 
	C704.497986,510.502228 699.095520,514.086731 697.019348,520.779236 
	C696.344360,522.954895 694.393860,523.755981 692.471558,524.287781 
	C681.792725,527.242065 671.112427,527.151794 660.480103,524.013123 
	C659.031799,523.585571 657.408325,522.934570 656.847656,521.542542 
	C654.004395,514.483765 647.948425,510.859131 641.986450,507.012604 
	C637.284851,503.979126 635.552734,499.120087 634.828247,493.844513 
	C634.206970,489.320465 633.285339,485.022552 629.436829,481.909760 
	C627.221375,480.117889 627.636414,478.305267 629.889404,476.634064 
	C633.814087,473.722870 637.420166,473.833557 641.095276,477.317932 
	C643.123779,479.241150 644.981934,481.344055 647.352783,483.821503 
	C650.698364,479.798706 655.547363,477.933441 657.538330,472.944275 
	C658.888611,469.560455 662.291077,468.350830 665.389832,467.234741 
	C668.380127,466.157684 670.538696,464.800964 671.482971,461.459442 
	C672.095276,459.292694 674.314209,458.200775 676.663879,458.232025 
	C679.007324,458.263153 681.526245,459.434448 681.733765,461.551300 
	C682.155090,465.849579 685.289856,466.113373 688.153931,467.248383 
	C689.985962,467.974396 691.632080,469.169556 693.639038,470.405212 
M647.649475,489.127808 
	C642.239319,487.727112 640.964844,480.693695 634.887207,479.323975 
	C637.855591,487.553589 640.465027,495.266449 647.485352,500.343353 
	C649.739319,501.973328 647.676025,502.931519 646.719604,503.861084 
	C648.031860,505.015198 649.553345,505.900787 650.450867,507.213165 
	C658.760132,519.363281 688.050598,519.647034 698.381226,510.912384 
	C704.582947,505.668732 706.509521,497.589325 702.959045,489.686340 
	C699.586670,482.179901 693.808472,479.245087 685.613586,480.836975 
	C684.474792,481.058228 683.281067,481.012512 682.152161,481.265961 
	C676.036987,482.638977 669.983215,481.159393 663.900146,480.638824 
	C667.226562,482.755066 670.895081,482.658539 674.516602,482.972107 
	C678.011353,483.274780 681.689087,482.076965 685.070923,483.808228 
	C684.766663,486.219330 683.054565,486.008514 681.672485,486.352783 
	C676.501038,487.640961 671.097839,487.492432 666.439941,485.518280 
	C659.397400,482.533447 653.477356,481.467682 648.876404,489.038391 
	C648.815735,489.138245 648.565186,489.122711 647.649475,489.127808 
M663.283264,473.794067 
	C668.061707,478.101776 683.056152,478.220032 689.857910,473.950623 
	C688.699768,471.778503 686.399231,471.567810 684.448853,470.891144 
	C682.431213,470.191132 680.241760,469.966217 678.255127,469.201721 
	C675.830200,468.268555 678.057373,465.362610 676.414062,463.492035 
	C675.671936,469.255981 675.665100,469.223907 669.897827,470.452118 
	C667.614746,470.938324 665.422913,471.720917 663.283264,473.794067 
M709.186096,494.720215 
	C709.365540,495.377441 709.723389,496.199341 710.417114,495.960419 
	C713.150879,495.019043 714.966858,488.734100 713.227234,486.429932 
	C712.156067,485.011017 710.670471,485.002533 709.198914,485.596344 
	C707.803406,486.159454 707.203552,487.247437 707.628601,488.789490 
	C708.111511,490.541443 708.567383,492.300903 709.186096,494.720215 
M716.997498,481.644989 
	C713.721130,478.709747 710.230835,478.656433 706.235046,480.921692 
	C716.539062,479.374756 719.131287,482.390442 718.080261,494.076721 
	C719.285156,490.081879 719.748474,486.112823 716.997498,481.644989 
z"/>
<path fill="#16a34a" opacity="1.000000" stroke="none" 
	d="
M559.076538,452.065613 
	C546.217651,453.663513 535.213684,459.543793 523.641052,463.668732 
	C512.793213,467.535370 502.076660,471.705292 490.181946,470.209717 
	C480.870331,469.038971 473.342163,465.210022 468.874664,456.550812 
	C467.959137,454.776306 466.954742,452.996613 468.126831,450.947815 
	C470.017792,450.059204 471.016998,451.468109 471.934509,452.525726 
	C479.683136,461.457123 489.658264,462.122192 500.324646,460.297363 
	C510.784454,458.507874 520.168152,453.653229 529.935242,449.887329 
	C540.682678,445.743378 551.573364,441.845093 563.176880,441.338928 
	C580.556885,440.580780 596.806458,443.915588 609.188843,457.427185 
	C618.009216,467.051880 620.500122,478.645386 618.273865,491.355225 
	C618.136780,492.137848 617.711548,492.887085 617.322937,493.598663 
	C617.198730,493.826202 616.759583,493.881744 616.458130,494.018860 
	C614.870239,493.346649 615.076965,491.895020 615.017883,490.607239 
	C613.721558,462.363922 595.247375,453.746094 575.931885,451.358978 
	C570.483765,450.685638 564.949036,450.901520 559.076538,452.065613 
z"/>
<path fill="#16a34a" opacity="1.000000" stroke="none" 
	d="
M472.234802,210.832169 
	C461.814911,200.802261 460.231781,190.417206 467.269196,178.233719 
	C470.354706,172.891968 473.977142,167.798645 478.836517,163.961441 
	C487.826080,156.862823 492.843323,148.123184 491.713501,136.395035 
	C491.666718,135.909546 491.756470,135.397354 491.863251,134.915497 
	C491.931458,134.607742 492.148346,134.332962 492.324371,133.993759 
	C494.607544,133.114563 495.614990,135.024170 496.790680,136.242218 
	C505.540833,145.307495 506.933319,159.533401 500.314178,170.350113 
	C497.238251,175.376633 493.083923,179.427261 489.008179,183.583633 
	C478.746216,194.048691 478.666443,202.165222 488.619354,212.910828 
	C489.400452,213.754120 490.386047,214.470200 490.358246,216.654648 
	C483.307220,218.393494 477.960785,214.536194 472.234802,210.832169 
z"/>
<path fill="#16a34a" opacity="1.000000" stroke="none" 
	d="
M635.256714,542.499817 
	C623.089050,544.922424 611.348206,544.886780 599.631592,542.311890 
	C595.157837,541.328674 591.118042,539.375610 587.609253,536.453857 
	C582.413452,532.127319 583.010498,528.251343 589.165527,525.694824 
	C590.381714,525.189697 591.600525,524.690979 592.711243,524.233337 
	C593.300537,522.291565 591.740234,521.328308 591.278320,519.969788 
	C590.415894,517.433411 590.106628,514.763977 592.351196,513.042969 
	C598.873047,508.042450 605.011230,502.346283 614.372986,503.153015 
	C620.165100,503.652161 626.028687,503.428589 631.692627,504.982605 
	C635.368408,505.991089 637.415771,508.260956 636.583679,512.384338 
	C636.388000,513.353943 636.534668,514.388672 636.382812,515.371704 
	C635.591309,520.497437 636.477234,523.857971 642.851257,524.355469 
	C646.381958,524.631165 651.076782,525.726624 651.663025,530.403259 
	C652.229858,534.925659 648.117432,536.766052 644.944702,538.858398 
	C642.121338,540.720398 638.948425,541.719055 635.256714,542.499817 
M605.923767,518.140015 
	C607.468628,523.684692 613.616333,525.524109 615.904114,530.498962 
	C627.742188,531.133667 633.587646,525.531616 631.772644,514.743774 
	C622.138123,517.047424 612.389893,516.275574 602.684021,514.795410 
	C602.507751,517.700195 604.368958,517.204956 605.923767,518.140015 
M632.283936,534.551086 
	C636.933655,533.461609 642.115662,534.079224 646.416748,530.548828 
	C637.765076,523.410461 632.568176,529.712280 626.928223,534.630859 
	C628.523743,534.630859 630.007629,534.630859 632.283936,534.551086 
M595.625244,533.408997 
	C598.935181,532.873108 598.415283,529.728027 600.183655,527.606323 
	C593.314331,528.479736 593.155151,528.535156 590.252991,530.932678 
	C591.340698,532.677979 593.311340,532.658997 595.625244,533.408997 
M602.142700,532.121277 
	C603.908142,537.184753 607.860107,533.661560 610.685425,534.582764 
	C607.929260,533.723022 606.002625,530.399719 602.142700,532.121277 
z"/>
<path fill="#16a34a" opacity="1.000000" stroke="none" 
	d="
M625.528076,149.551941 
	C631.255615,144.100510 632.680847,144.270905 635.471619,151.098740 
	C637.160034,155.229721 638.290161,159.588882 639.957764,164.728806 
	C644.385254,161.929123 648.653748,159.238297 652.912537,156.532181 
	C654.293640,155.654617 655.616943,154.218277 657.396606,155.305023 
	C659.086914,156.337128 658.752625,158.122757 658.632507,159.815750 
	C657.480164,176.053482 650.247986,188.671967 636.333191,197.290802 
	C630.785645,200.726990 624.939270,203.809006 624.163330,211.397125 
	C624.022705,212.771851 622.993774,213.896591 621.354004,213.578964 
	C619.800720,213.278061 618.887390,211.795959 619.257324,210.597443 
	C622.157837,201.199539 615.493103,195.763596 610.814758,189.448471 
	C603.641052,179.764877 601.291504,169.093552 604.527405,157.342789 
	C604.924500,155.900696 605.034790,154.244781 606.913635,153.946976 
	C608.758301,153.654633 609.508179,155.109421 610.314087,156.374695 
	C611.883118,158.838242 613.094055,161.593536 615.876404,163.561630 
	C619.009216,158.684723 621.131287,153.525314 625.528076,149.551941 
M643.746216,168.249237 
	C633.427917,175.194382 627.745605,184.932388 625.431702,197.538559 
	C640.943420,191.791199 652.666199,176.735046 652.913635,162.428558 
	C649.877441,164.347061 647.106628,166.097839 643.746216,168.249237 
M634.855591,166.166016 
	C634.742737,160.996811 633.403992,156.249969 630.359314,151.565674 
	C625.227417,155.976562 622.206848,160.971115 620.034058,166.610794 
	C618.426147,170.784058 621.993652,173.350128 622.895996,176.733337 
	C623.385986,178.570526 624.034729,180.365387 625.127319,183.799271 
	C626.631531,176.045959 633.380981,173.266388 634.855591,166.166016 
M608.143188,167.294312 
	C607.969116,177.168137 612.414795,184.889923 619.215393,192.156189 
	C621.403625,183.023178 615.977417,169.530624 608.518433,164.627701 
	C608.400818,165.321320 608.292969,165.957138 608.143188,167.294312 
z"/>
<path fill="#16a34a" opacity="1.000000" stroke="none" 
	d="
M652.532776,379.126678 
	C651.103271,379.722931 650.082153,381.092682 648.732422,379.712982 
	C658.770996,361.712830 677.600037,351.698059 692.030334,364.219788 
	C683.305481,369.674561 675.979553,377.702393 664.288757,376.240601 
	C660.227112,375.732697 656.421692,377.071991 652.532776,379.126678 
z"/>
<path fill="#16a34a" opacity="1.000000" stroke="none" 
	d="
M556.789734,510.933899 
	C552.370728,513.151489 548.265808,515.179199 543.962341,517.304993 
	C542.824890,502.085541 552.588562,494.448730 563.788879,487.845520 
	C569.041809,494.500000 566.107178,504.821869 556.789734,510.933899 
z"/>
<path fill="#16a34a" opacity="1.000000" stroke="none" 
	d="
M648.939453,254.507294 
	C651.480713,265.788269 648.005066,272.817841 638.007568,277.496490 
	C634.484070,279.145477 631.040344,280.965027 626.661499,283.156403 
	C629.103149,273.473816 629.077698,263.693634 639.396118,259.161682 
	C641.676208,258.160248 643.634583,256.580261 645.204041,254.565979 
	C646.207947,253.277557 647.361572,252.314224 648.939453,254.507294 
z"/>
<path fill="#16a34a" opacity="1.000000" stroke="none" 
	d="
M348.182587,324.752808 
	C350.816498,327.868866 353.200836,330.720123 355.748108,333.766235 
	C343.190643,335.431458 331.247528,336.864899 323.597626,324.211700 
	C328.351501,318.012451 339.963440,317.917389 348.182587,324.752808 
z"/>
<path fill="#16a34a" opacity="1.000000" stroke="none" 
	d="
M378.154541,470.904938 
	C379.047241,472.522888 379.877625,473.803864 380.276215,475.207458 
	C381.105865,478.128876 381.399475,480.473114 376.778442,479.771393 
	C374.109985,479.366150 371.240234,480.397034 368.449860,480.664154 
	C359.356201,481.534607 352.804718,473.000519 356.603607,464.497162 
	C363.017120,468.920013 371.853088,464.439606 378.154541,470.904938 
z"/>
<path fill="#16a34a" opacity="1.000000" stroke="none" 
	d="
M596.747314,322.998871 
	C589.166321,323.401306 582.044983,323.823059 574.918213,324.114227 
	C572.981201,324.193359 570.475159,324.397644 570.318420,321.612000 
	C570.190613,319.342072 572.328857,318.643005 574.155945,318.465759 
	C583.894531,317.520874 593.643066,316.673859 603.394714,315.872467 
	C605.590454,315.692017 607.529114,316.513611 607.702698,318.980408 
	C607.894836,321.709473 605.705261,322.019531 603.635071,322.240662 
	C601.490234,322.469757 599.348206,322.725159 596.747314,322.998871 
z"/>
<path fill="#16a34a" opacity="1.000000" stroke="none" 
	d="
M450.547394,354.652618 
	C447.889465,355.135498 445.604553,355.323181 445.059113,352.362762 
	C444.570587,349.711060 445.753143,347.936035 448.429901,347.095612 
	C452.708862,345.752197 456.941681,344.262268 461.201508,342.857025 
	C463.142090,342.216797 465.423737,340.486420 466.603516,343.689453 
	C467.602112,346.400604 467.418304,349.080933 464.234009,350.361389 
	C459.918640,352.096680 455.544250,353.690796 450.547394,354.652618 
z"/>
<path fill="#16a34a" opacity="1.000000" stroke="none" 
	d="
M691.310913,416.709167 
	C692.472534,415.243988 693.332825,413.982117 694.453979,413.026276 
	C696.054688,411.661591 697.768555,409.617676 700.108154,411.008392 
	C702.584534,412.480377 703.414368,415.107880 703.136597,417.951324 
	C702.734497,422.066315 697.119263,427.437958 692.976196,427.909821 
	C690.936462,428.142120 690.298157,426.919403 689.996704,425.347717 
	C689.445251,422.471558 690.057800,419.721680 691.310913,416.709167 
z"/>
<path fill="#16a34a" opacity="1.000000" stroke="none" 
	d="
M600.557373,313.990356 
	C591.134460,315.389801 582.107056,316.729828 573.078979,316.561890 
	C572.600647,314.275604 573.633606,313.576935 574.784912,313.373535 
	C582.622803,311.988892 590.360352,309.973328 598.343018,309.488373 
	C600.066284,309.383667 601.758118,309.741486 602.584106,311.465485 
	C603.308044,312.976410 602.087036,313.483002 600.557373,313.990356 
z"/>
<path fill="#16a34a" opacity="1.000000" stroke="none" 
	d="
M690.670166,528.241089 
	C692.796143,528.696777 694.741333,528.207825 696.303223,529.460388 
	C693.934204,532.769592 668.905518,533.591980 661.957397,529.858337 
	C672.190857,527.711792 681.298645,528.742310 690.670166,528.241089 
z"/>
<path fill="#16a34a" opacity="1.000000" stroke="none" 
	d="
M369.269165,333.737915 
	C371.122437,330.998657 373.322998,329.691620 376.235626,330.683685 
	C379.502289,331.796356 380.949188,334.278046 380.273224,337.659515 
	C379.587585,341.089020 376.986511,342.134460 373.906586,341.584473 
	C369.804199,340.851898 367.909637,338.372131 369.269165,333.737915 
z"/>
<path fill="#16a34a" opacity="1.000000" stroke="none" 
	d="
M642.342957,440.098877 
	C645.684021,442.192596 645.129639,444.388336 642.735168,446.156464 
	C639.551331,448.507599 635.883667,449.304169 632.011963,447.986664 
	C630.918518,447.614594 629.669373,446.676483 630.243042,445.432007 
	C631.930969,441.770294 635.402039,440.605347 639.030823,439.906128 
	C639.972046,439.724701 640.989197,439.937683 642.342957,440.098877 
z"/>
<path fill="#16a34a" opacity="1.000000" stroke="none" 
	d="
M434.057922,536.318726 
	C430.321594,537.892273 427.932953,536.600037 426.460754,533.522766 
	C425.262543,531.018250 426.385834,528.965332 428.498596,527.610596 
	C430.888916,526.077881 433.354492,526.599182 435.222656,528.557007 
	C437.802246,531.260315 437.193878,533.877014 434.057922,536.318726 
z"/>
<path fill="#16a34a" opacity="1.000000" stroke="none" 
	d="
M522.334961,485.510895 
	C523.938782,482.527771 526.110046,481.165985 529.039124,482.238190 
	C531.592896,483.172974 533.151306,485.238373 532.495117,488.058746 
	C531.862000,490.779724 529.772644,492.303986 526.981018,492.000702 
	C523.496094,491.622162 521.710205,489.543091 522.334961,485.510895 
z"/>
<path fill="#16a34a" opacity="1.000000" stroke="none" 
	d="
M288.590210,267.470215 
	C290.928406,266.975525 292.596619,267.332733 293.295807,269.491516 
	C293.867645,271.257172 293.091400,272.674683 291.953217,273.989502 
	C289.297028,277.057953 286.042877,277.593384 281.596863,275.440643 
	C282.574432,271.780029 285.009125,269.367432 288.590210,267.470215 
z"/>
<path fill="#16a34a" opacity="1.000000" stroke="none" 
	d="
M577.364258,559.741394 
	C576.739929,560.058533 576.446472,560.232239 576.129578,560.307922 
	C573.195557,561.008728 569.320801,561.974426 568.565430,558.320496 
	C567.749268,554.372375 571.859558,553.623291 574.952698,553.043518 
	C576.756348,552.705322 578.825623,552.779846 579.809998,554.634216 
	C581.018188,556.910522 579.223450,558.261230 577.364258,559.741394 
z"/>
<path fill="#16a34a" opacity="1.000000" stroke="none" 
	d="
M340.471375,461.240875 
	C338.430237,464.444794 335.984772,464.497284 333.437531,462.754578 
	C331.396790,461.358368 330.940735,459.186279 331.924774,456.996490 
	C332.905792,454.813416 334.877869,453.586029 337.215607,454.289612 
	C340.389069,455.244629 341.669464,457.571625 340.471375,461.240875 
z"/>
<path fill="#16a34a" opacity="1.000000" stroke="none" 
	d="
M656.056519,354.305756 
	C653.759216,355.470245 652.020813,355.165924 651.184998,353.098755 
	C650.048950,350.288727 651.143616,347.878632 653.332336,346.025818 
	C654.831665,344.756622 656.530518,343.319305 658.655701,344.518585 
	C660.592224,345.611359 660.446289,347.497162 659.828491,349.346375 
	C659.180908,351.284668 657.993286,352.846039 656.056519,354.305756 
z"/>
<path fill="#16a34a" opacity="1.000000" stroke="none" 
	d="
M379.241943,216.862640 
	C376.509003,218.616409 374.183044,216.648651 371.704346,216.642120 
	C370.364166,216.638596 369.690216,215.108276 369.783234,213.633987 
	C369.887054,211.988892 370.799469,211.352844 372.416840,211.531921 
	C373.052216,211.602264 373.736450,211.579315 374.352600,211.420731 
	C380.092773,209.943222 380.742401,210.587997 379.241943,216.862640 
z"/>
<path fill="#16a34a" opacity="1.000000" stroke="none" 
	d="
M710.724731,521.168518 
	C707.367981,520.835754 704.036377,522.219666 701.544678,519.317261 
	C705.410522,516.269958 711.634949,516.277832 716.286926,519.284424 
	C715.159424,521.576233 712.982666,520.933228 710.724731,521.168518 
z"/>
<path fill="#16a34a" opacity="1.000000" stroke="none" 
	d="
M506.491333,496.423370 
	C509.309723,496.275635 511.145752,497.132446 511.202942,499.853760 
	C511.253601,502.265503 509.509918,503.338409 507.415619,503.636932 
	C505.270874,503.942657 503.320831,503.125305 502.711334,500.964142 
	C501.949707,498.263519 503.930939,497.190613 506.491333,496.423370 
z"/>
<path fill="#16a34a" opacity="1.000000" stroke="none" 
	d="
M405.546326,157.165405 
	C406.418335,154.687088 407.942261,153.639374 410.197662,154.005066 
	C411.801666,154.265137 412.823792,155.350311 413.096527,156.959320 
	C413.477631,159.207245 412.622498,161.057678 410.386566,161.511871 
	C407.421143,162.114258 405.742126,160.546127 405.546326,157.165405 
z"/>
<path fill="#16a34a" opacity="1.000000" stroke="none" 
	d="
M315.445068,227.513123 
	C312.273834,226.011948 313.246613,223.676819 314.026611,221.528275 
	C314.447205,220.369766 315.604462,219.650528 316.861389,220.151993 
	C319.712402,221.289413 321.749542,223.249725 322.760864,226.270859 
	C320.378906,228.191299 317.544464,224.582047 315.445068,227.513123 
z"/>
<path fill="#16a34a" opacity="1.000000" stroke="none" 
	d="
M677.509583,209.898560 
	C674.013062,210.618927 671.331726,209.807541 668.715576,207.601654 
	C670.941956,203.852539 673.894409,203.430634 677.193115,205.039688 
	C679.324890,206.079575 680.030457,207.812103 677.509583,209.898560 
z"/>
<path fill="#16a34a" opacity="1.000000" stroke="none" 
	d="
M465.178680,522.075073 
	C466.889282,525.450745 465.711212,526.475220 462.662048,525.906677 
	C461.877838,525.760437 461.078735,525.320129 460.443878,524.816467 
	C458.499268,523.273743 455.620789,521.294067 457.367157,518.865967 
	C459.333008,516.132751 461.749847,518.748047 463.663513,520.244202 
	C464.177002,520.645630 464.541779,521.237366 465.178680,522.075073 
z"/>
<path fill="#16a34a" opacity="1.000000" stroke="none" 
	d="
M687.964844,331.331512 
	C685.376770,332.197968 683.169495,332.826263 681.212097,330.356842 
	C683.065247,327.280640 685.913940,326.096405 689.325012,326.075592 
	C690.324890,326.069489 691.243896,326.740845 691.352112,327.874573 
	C691.557556,330.028442 689.754761,330.472687 687.964844,331.331512 
z"/>
<path fill="#16a34a" opacity="1.000000" stroke="none" 
	d="
M395.849213,467.110321 
	C393.786865,465.736938 392.472473,464.286346 393.835358,462.076691 
	C394.614044,460.814178 395.990814,460.550873 397.311218,461.116943 
	C399.106689,461.886658 400.286194,463.276947 399.913116,465.335876 
	C399.535553,467.419312 398.029114,467.786743 395.849213,467.110321 
z"/>
<path fill="#16a34a" opacity="1.000000" stroke="none" 
	d="
M304.626801,265.594635 
	C304.528595,263.022095 305.631256,261.812042 307.851471,262.149384 
	C309.578461,262.411804 310.741333,263.612213 311.120178,265.367889 
	C311.381622,266.579468 311.070587,267.748535 309.871368,268.255920 
	C307.400269,269.301422 305.884155,267.940552 304.626801,265.594635 
z"/>
<path fill="#16a34a" opacity="1.000000" stroke="none" 
	d="
M319.488098,290.908020 
	C317.740173,290.028351 316.343597,289.121368 317.717133,287.415558 
	C318.931824,285.906982 320.786102,285.597931 322.651947,285.878540 
	C324.082855,286.093750 325.189606,286.876129 324.984375,288.479645 
	C324.762726,290.211334 323.378632,290.839874 321.827240,291.057617 
	C321.190002,291.147003 320.525177,291.040222 319.488098,290.908020 
z"/>
<path fill="#16a34a" opacity="1.000000" stroke="none" 
	d="
M341.531433,494.364441 
	C338.779541,496.631073 336.522552,496.256134 335.297607,493.357574 
	C334.482788,491.429504 336.031311,490.114258 337.846466,489.954254 
	C340.611969,489.710480 342.383484,490.838928 341.531433,494.364441 
z"/>
<path fill="#16a34a" opacity="1.000000" stroke="none" 
	d="
M561.158203,232.466156 
	C564.183655,232.084167 566.886475,231.109268 569.622681,232.630249 
	C567.167236,235.590424 564.690674,236.061707 559.079041,234.842087 
	C558.435791,233.178772 559.758484,232.976593 561.158203,232.466156 
z"/>
<path fill="#16a34a" opacity="1.000000" stroke="none" 
	d="
M551.528809,321.210022 
	C553.789917,323.068298 552.980652,324.461456 551.054749,324.912567 
	C548.762146,325.449524 546.217773,325.963501 544.025757,323.713348 
	C545.642395,320.567291 548.481079,321.035156 551.528809,321.210022 
z"/>
<path fill="#16a34a" opacity="1.000000" stroke="none" 
	d="
M646.387268,520.251587 
	C644.696289,520.119141 643.307739,520.172058 642.777039,518.184021 
	C646.044861,516.459900 649.130920,516.385254 652.512451,518.346741 
	C651.105103,521.306396 648.667603,519.913818 646.387268,520.251587 
z"/>
<path fill="#16a34a" opacity="1.000000" stroke="none" 
	d="
M691.750732,534.194946 
	C694.504456,534.004700 696.963440,533.601807 699.269958,535.982483 
	C696.411194,538.003235 693.673584,537.665527 691.265015,537.099976 
	C688.812927,536.524231 689.516296,535.175842 691.750732,534.194946 
z"/>
<path fill="#16a34a" opacity="1.000000" stroke="none" 
	d="
M502.526550,335.546387 
	C497.896729,337.520294 493.674652,339.489441 489.327057,341.124939 
	C487.371857,341.860474 484.677246,343.687531 483.470856,340.209106 
	C482.376282,337.053162 483.091492,334.227814 486.622803,332.896729 
	C495.176239,329.672638 503.833801,326.794525 512.872253,325.222687 
	C516.793518,324.540741 520.672424,323.483856 524.714355,323.889099 
	C525.605835,323.978455 526.261414,324.421448 527.007996,326.459595 
	C519.012817,329.424408 510.947968,332.415009 502.526550,335.546387 
z"/>
<path fill="#16a34a" opacity="1.000000" stroke="none" 
	d="
M698.457764,507.429077 
	C696.690369,507.841309 695.375427,506.998505 696.079895,505.833710 
	C698.764038,501.396118 698.793457,496.256378 699.834717,490.952240 
	C703.853271,495.576874 703.221069,501.946899 698.457764,507.429077 
z"/>
</svg>